<svg width="94" height="31" viewBox="0 0 94 31" fill="none" xmlns="http://www.w3.org/2000/svg">
<path fill-rule="evenodd" clip-rule="evenodd" d="M5.92111 4.41995C4.75527 4.41995 3.67473 4.8037 2.80745 5.44329V2.0606C2.80745 1.47787 2.32405 0.994629 1.74113 0.994629C1.1582 0.994629 0.674805 1.47787 0.674805 2.0606V9.66454C0.674805 12.564 3.02072 14.9091 5.92111 14.9091C8.82151 14.9091 11.1674 12.564 11.1674 9.66454C11.1674 6.76509 8.82151 4.41995 5.92111 4.41995ZM5.92111 12.8056C4.18656 12.8056 2.77902 11.3985 2.77902 9.66454C2.77902 7.93056 4.18656 6.52348 5.92111 6.52348C7.65567 6.52348 9.06321 7.93056 9.06321 9.66454C9.06321 11.3985 7.65567 12.8056 5.92111 12.8056Z" fill="#A1A6BA"/>
<path fill-rule="evenodd" clip-rule="evenodd" d="M86.6774 3.26871C83.0945 3.26871 80.1799 6.18237 80.1799 9.76404C80.1799 13.3457 83.0945 16.2594 86.6774 16.2594C90.2602 16.2594 93.1748 13.3457 93.1748 9.76404C93.1748 6.16816 90.2602 3.26871 86.6774 3.26871ZM90.0611 10.8158H87.7437V13.1325C87.7437 13.7152 87.2603 14.1985 86.6774 14.1985C86.0944 14.1985 85.611 13.7152 85.611 13.1325V10.8158H83.2935C82.7106 10.8158 82.2272 10.3326 82.2272 9.74982C82.2272 9.16709 82.7106 8.68385 83.2935 8.68385H85.611V6.36713C85.611 5.7844 86.0944 5.30116 86.6774 5.30116C87.2603 5.30116 87.7437 5.7844 87.7437 6.36713V8.68385H90.0611C90.6441 8.68385 91.1275 9.16709 91.1275 9.74982C91.1275 10.3326 90.6441 10.8158 90.0611 10.8158Z" fill="#A1A6BA"/>
<path d="M24.0344 7.53265C24.0344 5.54283 25.7405 4.39159 27.1907 4.39159H31.2427C31.8256 4.39159 32.2948 4.8464 32.2948 5.44335C32.2948 6.13978 31.6977 6.4951 31.2427 6.4951H27.2049C26.5224 6.4951 26.1528 7.04941 26.1528 7.53265C26.1528 8.0301 26.5082 8.59862 27.2049 8.59862H29.6645C31.5697 8.59862 32.8209 10.1905 32.8209 11.7397C32.8209 13.3458 31.6266 14.9234 29.6645 14.9234H25.641C24.9727 14.9234 24.5746 14.3691 24.5746 13.8574C24.5746 13.3031 25.0012 12.7915 25.6267 12.7915H29.6219C30.3186 12.7915 30.6598 12.1519 30.6598 11.7539C30.6598 11.3702 30.347 10.7306 29.6219 10.7306H27.1907C26.0959 10.7164 24.0344 9.84937 24.0344 7.53265Z" fill="#A1A6BA"/>
<path d="M59.6496 7.53265C59.6496 5.54283 61.3557 4.39159 62.8059 4.39159H66.8437C67.4266 4.39159 67.8958 4.8464 67.8958 5.44335C67.8958 6.13978 67.2986 6.4951 66.8437 6.4951H62.8059C62.1234 6.4951 61.7538 7.04941 61.7538 7.53265C61.7538 8.0301 62.1092 8.59862 62.8059 8.59862H65.2655C67.1707 8.59862 68.4218 10.1905 68.4218 11.7397C68.4218 13.3458 67.2276 14.9234 65.2655 14.9234H61.2419C60.5595 14.9234 60.1756 14.3691 60.1756 13.8574C60.1756 13.3031 60.6021 12.7915 61.2277 12.7915H65.2229C65.9195 12.7915 66.2608 12.1519 66.2608 11.7539C66.2608 11.3702 65.948 10.7306 65.2229 10.7306H62.8059C61.6969 10.7164 59.6496 9.84937 59.6496 7.53265Z" fill="#A1A6BA"/>
<path d="M71.9905 4.39159C70.5403 4.39159 68.8342 5.54283 68.8342 7.53265C68.8342 9.84937 70.8815 10.7164 71.9905 10.7306H74.4217C75.1468 10.7306 75.4596 11.3702 75.4596 11.7539C75.4596 12.1519 75.1184 12.7915 74.4217 12.7915H70.4265C69.801 12.7915 69.3744 13.3031 69.3744 13.8574C69.3744 14.3691 69.7583 14.9234 70.4408 14.9234H74.4643C76.4264 14.9234 77.6207 13.3458 77.6207 11.7397C77.6207 10.1905 76.3695 8.59862 74.4643 8.59862H71.9905C71.2938 8.59862 70.9384 8.0301 70.9384 7.53265C70.9384 7.04941 71.308 6.4951 71.9905 6.4951H76.0283C76.4833 6.4951 77.0804 6.13978 77.0804 5.44335C77.0804 4.8464 76.6112 4.39159 76.0283 4.39159H71.9905Z" fill="#A1A6BA"/>
<path d="M34.0578 5.45756C34.0578 4.87483 34.5412 4.39159 35.1241 4.39159C35.707 4.39159 36.1904 4.87483 36.1904 5.45756V13.8432C36.1904 14.4259 35.707 14.9092 35.1241 14.9092C34.5412 14.9092 34.0578 14.4259 34.0578 13.8432V5.45756Z" fill="#A1A6BA"/>
<path fill-rule="evenodd" clip-rule="evenodd" d="M34.2995 21.5181C35.1668 20.8785 36.2473 20.4948 37.4132 20.4948C40.3136 20.4948 42.6595 22.8399 42.6595 25.7394C42.6595 28.6388 40.3136 30.984 37.4132 30.984C34.5128 30.984 32.1669 28.6388 32.1669 25.7394V18.1354C32.1669 17.5527 32.6503 17.0695 33.2332 17.0695C33.8161 17.0695 34.2995 17.5527 34.2995 18.1354V21.5181ZM34.2711 25.7394C34.2711 27.4733 35.6786 28.8804 37.4132 28.8804C39.1477 28.8804 40.5411 27.4733 40.5553 25.7394C40.5553 24.0054 39.1477 22.5983 37.4132 22.5983C35.6786 22.5983 34.2711 24.0054 34.2711 25.7394Z" fill="#A1A6BA"/>
<path d="M21.788 4.39159C21.2051 4.39159 20.7217 4.87483 20.7217 5.45756L20.7359 9.73566C20.6933 11.427 19.3142 12.7772 17.608 12.7772C15.9019 12.7772 14.5228 11.427 14.4802 9.73566L14.4944 5.45756C14.4944 4.87483 14.011 4.39159 13.4281 4.39159C12.8451 4.39159 12.3617 4.87483 12.3617 5.45756V9.73566C12.4044 12.5925 14.7361 14.9092 17.608 14.9092C20.48 14.9092 22.8117 12.6067 22.8544 9.73566V5.45756C22.8544 4.87483 22.371 4.39159 21.788 4.39159Z" fill="#A1A6BA"/>
<path d="M17.3948 21.5324C17.3948 20.9497 17.8782 20.4664 18.4611 20.4664C19.044 20.4664 19.5274 20.9497 19.5274 21.5324V25.8105C19.4847 28.6815 17.1531 30.984 14.2811 30.984C12.575 30.984 11.0537 30.1739 10.1011 28.9089C9.14852 30.1739 7.62723 30.984 5.92111 30.984C3.04915 30.984 0.717458 28.6815 0.674805 25.8105V21.5324C0.674805 20.9497 1.1582 20.4664 1.74113 20.4664C2.32405 20.4664 2.80745 20.9497 2.80745 21.5324L2.79323 25.8105C2.83589 27.5018 4.215 28.8521 5.92111 28.8521C7.5988 28.8521 8.96369 27.5302 9.03478 25.8815V21.5324C9.03478 20.9497 9.51818 20.4664 10.1011 20.4664C10.684 20.4664 11.1674 20.9497 11.1674 21.5324V25.8815C11.2385 27.5302 12.6034 28.8521 14.2811 28.8521C15.9872 28.8521 17.3663 27.5018 17.409 25.8105L17.3948 21.5324Z" fill="#A1A6BA"/>
<path d="M38.508 14.9092C39.0909 14.9092 39.5743 14.4259 39.5743 13.8432L39.5601 9.56511C39.6027 7.87376 40.9818 6.52353 42.688 6.52353C44.3941 6.52353 45.7732 7.87376 45.8158 9.56511L45.8016 13.8432C45.8016 14.4259 46.285 14.9092 46.8679 14.9092C47.4509 14.9092 47.9343 14.4259 47.9343 13.8432V9.56511C47.8916 6.7083 45.5599 4.39159 42.688 4.39159C39.816 4.39159 37.4843 6.69409 37.4416 9.56511V13.8432C37.4416 14.4259 37.9108 14.9092 38.508 14.9092Z" fill="#A1A6BA"/>
<path d="M36.1904 2.16012C36.1904 2.74884 35.713 3.22609 35.1241 3.22609C34.5352 3.22609 34.0578 2.74884 34.0578 2.16012C34.0578 1.5714 34.5352 1.09415 35.1241 1.09415C35.713 1.09415 36.1904 1.5714 36.1904 2.16012Z" fill="#A1A6BA"/>
<path fill-rule="evenodd" clip-rule="evenodd" d="M58.7538 10.7305C58.2704 10.4036 57.6022 10.5315 57.2752 11.0148C57.2746 11.0154 57.2715 11.0195 57.2661 11.0267C57.1501 11.1811 55.9513 12.7772 54.389 12.7772C53.9198 12.7772 53.4649 12.6635 53.0526 12.4787L58.0856 7.46153C58.4979 7.04935 58.4979 6.36713 58.0856 5.95496L58.0697 5.93904C57.7579 5.62654 56.5397 4.40574 54.3748 4.40574C51.4744 4.40574 49.1285 6.75088 49.1285 9.65034C49.1285 12.5498 51.4744 14.8949 54.3748 14.8949C57.2431 14.8949 58.8878 12.4207 59.0339 12.201L59.0382 12.1945C59.3794 11.7254 59.2515 11.0574 58.7538 10.7305ZM51.2611 9.66454C51.2611 7.94478 52.6545 6.53769 54.389 6.53769C54.8582 6.53769 55.3132 6.63718 55.7113 6.83616L51.5597 10.9721C51.3749 10.5742 51.2611 10.1336 51.2611 9.66454Z" fill="#A1A6BA"/>
<path fill-rule="evenodd" clip-rule="evenodd" d="M28.9963 27.0896C29.3233 26.6064 29.9916 26.4784 30.475 26.8053C30.9726 27.1322 31.1005 27.8002 30.7593 28.2693L30.755 28.2758C30.6088 28.4957 28.9642 30.9697 26.0959 30.9697C23.1955 30.9697 20.8496 28.6246 20.8496 25.7252C20.8496 22.8257 23.1955 20.4806 26.0959 20.4806C28.2609 20.4806 29.479 21.7014 29.7908 22.0139L29.8067 22.0298C30.219 22.442 30.219 23.1242 29.8067 23.5364L24.7737 28.5535C25.186 28.7383 25.641 28.852 26.1102 28.852C27.6725 28.852 28.8713 27.2558 28.9873 27.1015L28.9935 27.0932C28.9951 27.0911 28.996 27.0899 28.9963 27.0896ZM26.1102 22.6125C24.3756 22.6125 22.9823 24.0196 22.9823 25.7394C22.9823 26.2084 23.096 26.649 23.2808 27.047L27.4324 22.911C27.0343 22.712 26.5793 22.6125 26.1102 22.6125Z" fill="#A1A6BA"/>
<path d="M50.6356 23.9344C50.4934 24.1334 50.2944 24.304 50.0527 24.4319C49.811 24.5598 49.5266 24.6167 49.1996 24.6167C48.9152 24.6167 48.6451 24.574 48.4034 24.4745C48.1617 24.375 47.9485 24.2471 47.7778 24.0623C47.6072 23.8918 47.4651 23.6786 47.3655 23.437C47.266 23.1954 47.2234 22.9253 47.2234 22.6411C47.2234 22.3426 47.2802 22.0725 47.3797 21.8309C47.4793 21.5893 47.6214 21.3761 47.8063 21.2055C47.9911 21.035 48.2044 20.8928 48.4461 20.8076C48.6878 20.7081 48.9579 20.6654 49.2423 20.6654C49.3702 20.6654 49.4982 20.6797 49.6261 20.7081C49.7541 20.7365 49.882 20.7649 50.01 20.8218C50.1237 20.8644 50.2375 20.9355 50.337 21.0066C50.4365 21.0776 50.5218 21.1629 50.5929 21.2624L50.1806 21.5751C50.0953 21.4472 49.9531 21.3477 49.7825 21.2624C49.6119 21.1771 49.4271 21.1345 49.2423 21.1345C49.029 21.1345 48.8299 21.1771 48.6451 21.2482C48.4745 21.3334 48.3181 21.4329 48.1902 21.5751C48.0622 21.7172 47.9769 21.8735 47.9058 22.0583C47.8347 22.2431 47.8063 22.4421 47.8063 22.6411C47.8063 22.8542 47.8347 23.0532 47.9058 23.238C47.9769 23.4228 48.0622 23.5791 48.1902 23.7212C48.3181 23.8634 48.4603 23.9628 48.6309 24.0481C48.8015 24.1334 49.0006 24.1618 49.2138 24.1618C49.4271 24.1618 49.6261 24.1192 49.7967 24.0339C49.9674 23.9486 50.1095 23.8207 50.2233 23.6644L50.6356 23.9344Z" fill="#A1A6BA"/>
<path fill-rule="evenodd" clip-rule="evenodd" d="M53.536 23.7922C53.6071 23.6217 53.6355 23.4511 53.6355 23.2521C53.6355 23.0531 53.5929 22.8684 53.536 22.712C53.4649 22.5557 53.3796 22.4136 53.2516 22.2998C53.1237 22.1862 52.9815 22.1009 52.8109 22.0298C52.6403 21.9587 52.4554 21.9303 52.2706 21.9303C52.0716 21.9303 51.901 21.9587 51.7303 22.0298C51.574 22.0867 51.4176 22.1862 51.3038 22.2998C51.1901 22.4136 51.0905 22.5557 51.0195 22.712C50.9484 22.8826 50.9199 23.0531 50.9199 23.2521C50.9199 23.4511 50.9484 23.6359 51.0195 23.7922C51.0905 23.9628 51.1901 24.1049 51.3038 24.2186C51.4176 24.3323 51.5597 24.4176 51.7303 24.4887C51.901 24.5597 52.0858 24.5881 52.2706 24.5881C52.4697 24.5881 52.6403 24.5597 52.8109 24.4887C52.9815 24.4318 53.1237 24.3323 53.2516 24.2186C53.3654 24.0907 53.4649 23.9486 53.536 23.7922ZM53.0526 22.911C53.0952 23.0105 53.1095 23.1384 53.1095 23.2521C53.1095 23.3658 53.0952 23.4795 53.0526 23.5932C53.0241 23.7069 52.9673 23.8064 52.8962 23.8917C52.8251 23.977 52.7256 24.0481 52.6261 24.0907C52.5265 24.1333 52.4128 24.1617 52.2706 24.1617C52.1427 24.1617 52.0147 24.1333 51.9152 24.0907C51.8014 24.0481 51.7161 23.977 51.645 23.8917C51.574 23.8064 51.5313 23.7069 51.4886 23.5932C51.446 23.4937 51.4318 23.3658 51.4318 23.2521C51.4318 23.1384 51.446 23.0247 51.4886 22.911C51.5171 22.8115 51.574 22.712 51.645 22.6268C51.7161 22.5415 51.8156 22.4704 51.9152 22.4278C52.0147 22.3851 52.1284 22.3567 52.2706 22.3567C52.3986 22.3567 52.5265 22.3851 52.6261 22.4278C52.7398 22.4704 52.8251 22.5415 52.8962 22.6268C52.9673 22.712 53.0099 22.7973 53.0526 22.911Z" fill="#A1A6BA"/>
<path d="M55.1141 22.0583C55.2563 21.9588 55.4269 21.9162 55.6117 21.9162C55.7824 21.9162 55.9388 21.9588 56.0667 22.0299C56.1947 22.1009 56.3084 22.2431 56.3937 22.4136C56.479 22.2573 56.5928 22.1294 56.7492 22.0441C56.9056 21.9588 57.0619 21.9162 57.2468 21.9162C57.4032 21.9162 57.5453 21.9446 57.6733 22.0014C57.787 22.0583 57.8866 22.1294 57.9719 22.2288C58.043 22.3283 58.1141 22.4278 58.1425 22.5557C58.1851 22.6837 58.1994 22.8116 58.1994 22.9537V24.5171H57.7017V23.1243C57.7017 23.0248 57.6875 22.9253 57.6733 22.8258C57.6591 22.7405 57.6306 22.6552 57.588 22.5842C57.5453 22.5131 57.4885 22.4563 57.4174 22.4136C57.3463 22.371 57.261 22.3568 57.1473 22.3568C57.0335 22.3568 56.934 22.3852 56.8487 22.4278C56.7634 22.4705 56.7065 22.5415 56.6496 22.6126C56.5928 22.6837 56.5643 22.7689 56.5359 22.8684C56.5075 22.9679 56.5075 23.0674 56.5075 23.1669V24.5313H56.0098V23.0248C56.0098 22.9253 55.9956 22.84 55.9814 22.7547C55.9672 22.6695 55.9388 22.5984 55.8961 22.5415C55.8534 22.4847 55.7966 22.442 55.7255 22.3994C55.6544 22.371 55.5691 22.3425 55.4696 22.3425C55.2847 22.3425 55.1283 22.4136 55.0146 22.57C54.8867 22.7263 54.8298 22.9253 54.8298 23.1669V24.5029H54.3322V22.2715C54.3322 22.2198 54.3283 22.1682 54.3246 22.1185C54.3239 22.1092 54.3233 22.1 54.3226 22.0908C54.3212 22.0711 54.3199 22.0517 54.3191 22.0328C54.3184 22.0172 54.3179 22.002 54.3179 21.9872H54.7871C54.7871 21.9944 54.7873 22.002 54.7877 22.01C54.7882 22.0183 54.7888 22.0271 54.7895 22.0361C54.7906 22.0509 54.7921 22.0664 54.7936 22.0823C54.7974 22.1214 54.8013 22.1629 54.8013 22.2004V22.3994H54.8156C54.8724 22.2715 54.9862 22.1578 55.1141 22.0583Z" fill="#A1A6BA"/>
<path fill-rule="evenodd" clip-rule="evenodd" d="M59.0525 25.7963H59.5359V24.1618H59.5501C59.6496 24.304 59.7776 24.4177 59.9339 24.4887C60.0903 24.5598 60.261 24.6024 60.4458 24.6024C60.6448 24.6024 60.8154 24.574 60.9718 24.5029C61.1282 24.4319 61.2562 24.3324 61.3699 24.2187C61.4837 24.0908 61.569 23.9486 61.6258 23.7923C61.6827 23.6217 61.7111 23.4512 61.7111 23.2664C61.7111 23.0959 61.6827 22.9111 61.6258 22.7547C61.569 22.5842 61.4837 22.4421 61.3699 22.3284C61.2562 22.2005 61.1282 22.1152 60.9718 22.0441C60.8154 21.973 60.6448 21.9446 60.46 21.9446C60.2467 21.9446 60.0619 21.9873 59.9055 22.0725C59.7491 22.1578 59.6354 22.2715 59.5501 22.3994H59.5359V22.0015H59.0525V25.7963ZM61.1424 22.9111C61.1851 23.0248 61.1993 23.1385 61.1993 23.2522C61.1993 23.3659 61.1851 23.4796 61.1424 23.5791C61.114 23.6928 61.0571 23.7923 60.9861 23.8776C60.915 23.9628 60.8154 24.0197 60.7159 24.0766C60.6022 24.1192 60.4884 24.1476 60.3463 24.1476C60.2183 24.1476 60.0903 24.1192 59.9908 24.0766C59.8913 24.0339 59.7918 23.9628 59.7207 23.8776C59.6496 23.8065 59.5927 23.707 59.5501 23.5933C59.5074 23.4938 59.4932 23.3659 59.4932 23.2522C59.4932 23.1385 59.5074 23.0248 59.5501 22.9111C59.5927 22.7974 59.6496 22.6979 59.7207 22.6126C59.7918 22.5273 59.8913 22.4563 59.9908 22.4136C60.1046 22.371 60.2183 22.3426 60.3463 22.3426C60.4884 22.3426 60.6164 22.371 60.7159 22.4136C60.8297 22.4563 60.915 22.5273 60.9861 22.6126C61.0571 22.6979 61.0998 22.7974 61.1424 22.9111Z" fill="#A1A6BA"/>
<path d="M62.4052 22.1892C62.4038 22.1653 62.402 22.1417 62.4003 22.1185C62.3969 22.0725 62.3936 22.0282 62.3936 21.9872H62.8628C62.8628 22.0128 62.8657 22.0441 62.8688 22.0785C62.8708 22.1002 62.8729 22.1232 62.8745 22.1468L62.875 22.1546L62.8755 22.1633C62.8764 22.1802 62.877 22.1974 62.877 22.2146V22.4136H62.8912C62.9623 22.2715 63.0618 22.1436 63.204 22.0583C63.3462 21.973 63.4884 21.9162 63.659 21.9162C63.7301 21.9162 63.8011 21.9304 63.858 21.9446L63.8296 22.4136C63.7585 22.3994 63.6874 22.3852 63.6021 22.3852C63.4884 22.3852 63.3746 22.4136 63.2893 22.4563C63.204 22.4989 63.1329 22.5557 63.0618 22.641C63.005 22.7121 62.9623 22.7974 62.9339 22.8969C62.9054 22.9963 62.8912 23.0958 62.8912 23.2095V24.5313H62.3936V22.5557C62.422 22.4705 62.422 22.3852 62.4078 22.2715C62.4078 22.2566 62.4075 22.2416 62.4069 22.2268C62.4065 22.2142 62.4059 22.2017 62.4052 22.1892Z" fill="#A1A6BA"/>
<path fill-rule="evenodd" clip-rule="evenodd" d="M66.7015 23.7922C66.7726 23.6217 66.8011 23.4511 66.8011 23.2521C66.8011 23.0531 66.7726 22.8684 66.7015 22.712C66.6305 22.5557 66.5452 22.4136 66.4172 22.2998C66.3035 22.1862 66.1613 22.1009 65.9907 22.0298C65.8201 21.9587 65.6352 21.9303 65.4504 21.9303C65.2513 21.9303 65.0807 21.9587 64.9101 22.0298C64.7537 22.0867 64.5973 22.1862 64.4836 22.2998C64.3699 22.4136 64.2703 22.5557 64.1992 22.712C64.1281 22.8826 64.0997 23.0531 64.0997 23.2521C64.0997 23.4511 64.1281 23.6359 64.1992 23.7922C64.2703 23.9628 64.3699 24.1049 64.4836 24.2186C64.5973 24.3323 64.7395 24.4176 64.9101 24.4887C65.0807 24.5597 65.2656 24.5881 65.4504 24.5881C65.6494 24.5881 65.8201 24.5597 65.9907 24.4887C66.1471 24.4318 66.2892 24.3323 66.4172 24.2186C66.5309 24.0907 66.6305 23.9486 66.7015 23.7922ZM66.2182 22.911C66.2608 23.0105 66.275 23.1384 66.275 23.2521C66.275 23.3658 66.2608 23.4795 66.2182 23.5932C66.1897 23.7069 66.1328 23.8064 66.0618 23.8917C65.9907 23.977 65.8911 24.0481 65.7916 24.0907C65.6921 24.1333 65.5784 24.1617 65.4362 24.1617C65.3082 24.1617 65.1803 24.1333 65.0807 24.0907C64.967 24.0481 64.8817 23.977 64.8106 23.8917C64.7487 23.8174 64.7083 23.7215 64.6707 23.6323L64.6628 23.6134C64.6599 23.6066 64.6571 23.5999 64.6542 23.5932C64.6115 23.4937 64.5973 23.3658 64.5973 23.2521C64.5973 23.1384 64.6115 23.0247 64.6542 22.911C64.6826 22.8115 64.7395 22.712 64.8106 22.6268C64.8817 22.5415 64.9812 22.4704 65.0807 22.4278C65.1803 22.3851 65.294 22.3567 65.4362 22.3567C65.5641 22.3567 65.6921 22.3851 65.7916 22.4278C65.9054 22.4704 65.9907 22.5415 66.0618 22.6268C66.1328 22.712 66.1755 22.7973 66.2182 22.911Z" fill="#A1A6BA"/>
<path d="M68.2939 22.0583C68.4361 21.9588 68.6067 21.9162 68.7915 21.9162C68.9621 21.9162 69.1185 21.9588 69.2465 22.0299C69.3887 22.1009 69.4882 22.2431 69.5735 22.4136C69.6588 22.2573 69.7725 22.1294 69.9289 22.0441C70.0853 21.9588 70.2417 21.9162 70.4265 21.9162C70.5829 21.9162 70.7251 21.9446 70.8531 22.0014C70.9668 22.0583 71.0663 22.1294 71.1516 22.2288C71.2227 22.3283 71.2938 22.4278 71.3223 22.5557C71.3649 22.6837 71.3791 22.8116 71.3791 22.9537V24.5171H70.8815V23.1243C70.8815 23.0248 70.8673 22.9253 70.8531 22.8258C70.8389 22.7405 70.8104 22.6552 70.7678 22.5842C70.7251 22.5131 70.6682 22.4563 70.5972 22.4136C70.5261 22.371 70.4408 22.3568 70.327 22.3568C70.2133 22.3568 70.1138 22.3852 70.0285 22.4278C69.9431 22.4705 69.8863 22.5415 69.8294 22.6126C69.7725 22.6837 69.7441 22.7689 69.7157 22.8684C69.6872 22.9679 69.6872 23.0674 69.6872 23.1669V24.5313H69.1896V23.0248C69.1896 22.9253 69.1754 22.84 69.1612 22.7547C69.147 22.6695 69.1185 22.5984 69.0759 22.5415C69.0332 22.4847 68.9763 22.442 68.9053 22.3994C68.8342 22.371 68.7489 22.3425 68.6493 22.3425C68.4645 22.3425 68.3081 22.4136 68.1944 22.57C68.0664 22.7263 68.0095 22.9253 68.0095 23.1669V24.5029H67.4977V22.2715C67.4977 22.2198 67.4939 22.1682 67.4902 22.1185C67.4868 22.0725 67.4835 22.0282 67.4835 21.9872H67.9527C67.9527 22.0141 67.9558 22.0473 67.9592 22.0823L67.9592 22.0824C67.9629 22.1215 67.9669 22.163 67.9669 22.2004V22.3994H67.9811C68.0522 22.2715 68.1517 22.1578 68.2939 22.0583Z" fill="#A1A6BA"/>
<path fill-rule="evenodd" clip-rule="evenodd" d="M74.5781 23.2379C74.5781 23.0247 74.5496 22.8542 74.507 22.6836C74.4501 22.5273 74.3648 22.3851 74.2653 22.2714C74.1658 22.1577 74.0378 22.0724 73.8814 22.0156C73.7392 21.9587 73.5686 21.9303 73.3838 21.9303C73.199 21.9303 73.0284 21.9587 72.872 22.0298C72.7156 22.0867 72.5734 22.1862 72.4596 22.2998C72.3459 22.4136 72.2606 22.5557 72.1895 22.7262C72.1184 22.8968 72.09 23.0674 72.09 23.2663C72.09 23.4653 72.1184 23.6501 72.1895 23.8064C72.2464 23.9628 72.3459 24.1049 72.4596 24.2186C72.5876 24.3323 72.7298 24.4318 72.8862 24.4887C73.0426 24.5597 73.2274 24.5881 73.4122 24.5881C73.6397 24.5881 73.8388 24.5455 74.0236 24.4602C74.1942 24.3749 74.3648 24.247 74.4928 24.0623L74.1373 23.778C74.0662 23.8775 73.9667 23.977 73.8388 24.0481C73.7108 24.1191 73.5686 24.1617 73.398 24.1617C73.2843 24.1617 73.1848 24.1475 73.0852 24.1049C72.9857 24.0765 72.9004 24.0196 72.8293 23.9486C72.744 23.8775 72.6871 23.8064 72.6445 23.7069C72.6018 23.6075 72.5734 23.508 72.5734 23.4085H74.5781V23.2379ZM74.0094 22.7404C74.052 22.8257 74.0662 22.9252 74.0662 23.0247H72.5734C72.5734 22.9252 72.6018 22.8257 72.6445 22.7404C72.6871 22.6552 72.744 22.5841 72.8151 22.513C72.8862 22.442 72.9573 22.3994 73.0568 22.3567C73.1421 22.3141 73.2558 22.2998 73.3554 22.2998C73.4833 22.2998 73.5829 22.3141 73.6682 22.3567C73.7535 22.3994 73.8245 22.4562 73.8814 22.513C73.9383 22.5841 73.9667 22.6552 74.0094 22.7404Z" fill="#A1A6BA"/>
<path d="M76.4975 22.3993H75.8293V23.7069C75.8293 23.8633 75.8577 23.9627 75.9146 24.0338C75.9715 24.1049 76.0568 24.1333 76.1847 24.1333C76.2274 24.1333 76.2842 24.1333 76.3269 24.1191C76.3838 24.1049 76.4264 24.0907 76.4691 24.0765L76.4833 24.4886C76.4264 24.5171 76.3553 24.5313 76.2842 24.5455C76.2132 24.5597 76.1421 24.5597 76.0568 24.5597C75.8151 24.5597 75.6302 24.4886 75.5165 24.3607C75.3885 24.2328 75.3317 24.0338 75.3317 23.7638V22.3993H74.8483V21.9871H75.3317V21.2623H75.8293V21.9871H76.4975V22.3993Z" fill="#A1A6BA"/>
<path d="M77.5069 21.305C77.578 21.2482 77.6064 21.1771 77.6064 21.0776C77.6064 20.9923 77.5638 20.9213 77.5069 20.836C77.4358 20.7649 77.3505 20.7365 77.2652 20.7365C77.1799 20.7365 77.0946 20.7791 77.0377 20.836C76.9667 20.8929 76.9382 20.9781 76.9382 21.0634C76.9382 21.1487 76.9809 21.2198 77.0377 21.2908C77.0946 21.3619 77.1799 21.3903 77.2652 21.3903C77.3648 21.3903 77.4358 21.3619 77.5069 21.305Z" fill="#A1A6BA"/>
<path d="M77.0235 24.5172H77.5211V22.0015H77.0235V24.5172Z" fill="#A1A6BA"/>
<path fill-rule="evenodd" clip-rule="evenodd" d="M80.4073 24.1192C80.3078 24.2755 80.1799 24.3892 80.0092 24.4745C79.8386 24.5598 79.668 24.5882 79.4974 24.5882C79.2984 24.5882 79.1278 24.5598 78.9714 24.4887C78.815 24.4176 78.687 24.3182 78.5733 24.2044C78.4595 24.0907 78.3742 23.9486 78.3173 23.7781C78.2605 23.6217 78.232 23.4369 78.232 23.2522C78.232 23.0674 78.2605 22.8969 78.3173 22.7405C78.3742 22.5842 78.4595 22.442 78.5733 22.3141C78.687 22.2004 78.815 22.1009 78.9714 22.0299C79.1278 21.9588 79.2984 21.9304 79.4832 21.9304C79.6822 21.9304 79.8671 21.973 80.0235 22.0583C80.1798 22.1436 80.2936 22.2573 80.3789 22.371H80.3931V20.4949H80.8907V24.5171H80.4073V24.1192ZM78.7439 23.2522C78.7439 23.3659 78.7581 23.4796 78.8008 23.5933C78.8292 23.707 78.886 23.8065 78.9571 23.8918C79.0282 23.977 79.1135 24.0481 79.2131 24.0907C79.3126 24.1476 79.4405 24.1618 79.5685 24.1618C79.6965 24.1618 79.8102 24.1334 79.9239 24.0907C80.0235 24.0481 80.123 23.977 80.1941 23.8918C80.2652 23.8065 80.322 23.707 80.3647 23.6075C80.4073 23.4938 80.4216 23.3801 80.4216 23.2664C80.4216 23.1527 80.4073 23.0248 80.3647 22.9253C80.322 22.8116 80.2652 22.7121 80.1941 22.6268C80.123 22.5415 80.0235 22.4705 79.9239 22.4278C79.8244 22.3852 79.6965 22.3568 79.5685 22.3568C79.4263 22.3568 79.3126 22.3852 79.2131 22.4278C79.1135 22.4705 79.0282 22.5415 78.9571 22.6268C78.886 22.7121 78.8292 22.8116 78.8008 22.9253C78.7581 23.0248 78.7439 23.1385 78.7439 23.2522Z" fill="#A1A6BA"/>
<path fill-rule="evenodd" clip-rule="evenodd" d="M84.2319 23.7922C84.303 23.6217 84.3314 23.4511 84.3314 23.2521C84.3314 23.0531 84.2887 22.8684 84.2319 22.712C84.1608 22.5557 84.0755 22.4136 83.9475 22.2998C83.8338 22.1862 83.6916 22.1009 83.521 22.0298C83.3504 21.9587 83.1656 21.9303 82.9807 21.9303C82.7817 21.9303 82.6111 21.9587 82.4404 22.0298C82.284 22.0867 82.1277 22.1862 82.0139 22.2998C81.9002 22.4136 81.8007 22.5557 81.7296 22.712C81.6585 22.8826 81.63 23.0531 81.63 23.2521C81.63 23.4511 81.6585 23.6359 81.7296 23.7922C81.8007 23.9628 81.9002 24.1049 82.0139 24.2186C82.1277 24.3323 82.2698 24.4176 82.4404 24.4887C82.6111 24.5597 82.7959 24.5881 82.9807 24.5881C83.1798 24.5881 83.3504 24.5597 83.521 24.4887C83.6774 24.4318 83.8196 24.3323 83.9475 24.2186C84.0613 24.0907 84.1608 23.9486 84.2319 23.7922ZM83.7485 22.911C83.7911 23.0105 83.8053 23.1384 83.8053 23.2521C83.8053 23.3658 83.7911 23.4795 83.7485 23.5932C83.72 23.7069 83.6632 23.8064 83.5921 23.8917C83.521 23.977 83.4215 24.0481 83.3219 24.0907C83.2224 24.1333 83.1087 24.1617 82.9665 24.1617C82.8385 24.1617 82.7106 24.1333 82.6111 24.0907C82.4973 24.0481 82.412 23.977 82.3409 23.8917C82.2698 23.8064 82.2272 23.7069 82.1845 23.5932C82.1419 23.4937 82.1277 23.3658 82.1277 23.2521C82.1277 23.1384 82.1419 23.0247 82.1845 22.911C82.213 22.8115 82.2698 22.712 82.3409 22.6268C82.412 22.5415 82.5115 22.4704 82.6111 22.4278C82.7106 22.3851 82.8243 22.3567 82.9665 22.3567C83.0945 22.3567 83.2224 22.3851 83.3219 22.4278C83.4357 22.4704 83.521 22.5415 83.5921 22.6268C83.6632 22.712 83.7058 22.7973 83.7485 22.911Z" fill="#A1A6BA"/>
<path d="M86.3788 22.6268C86.3219 22.5415 86.2366 22.4562 86.1371 22.3994C86.0375 22.3425 85.9238 22.3141 85.7959 22.3141C85.739 22.3141 85.6821 22.3141 85.6252 22.3283C85.5684 22.3425 85.5115 22.3567 85.4688 22.3852C85.4262 22.4136 85.3835 22.442 85.3693 22.4846C85.3409 22.5273 85.3267 22.5699 85.3267 22.641C85.3267 22.7405 85.3693 22.8258 85.4688 22.8826C85.5684 22.9395 85.7106 22.9821 85.8954 23.0247C86.0091 23.0532 86.1229 23.0816 86.2366 23.1242C86.3361 23.1669 86.4356 23.2095 86.5067 23.2664C86.5778 23.3232 86.6489 23.3943 86.6916 23.4796C86.7342 23.5648 86.7484 23.6501 86.7484 23.7638C86.7484 23.9059 86.72 24.0339 86.6631 24.1476C86.6063 24.2471 86.5352 24.3323 86.4356 24.4034C86.3361 24.4745 86.2366 24.5171 86.1086 24.5455C85.9949 24.574 85.8669 24.5882 85.739 24.5882C85.5542 24.5882 85.3551 24.5455 85.1845 24.4745C84.9997 24.4034 84.8433 24.2897 84.7295 24.1334L85.085 23.8349C85.1561 23.9344 85.2414 24.0197 85.3693 24.0907C85.4831 24.1618 85.6252 24.1902 85.7674 24.1902C85.8243 24.1902 85.8954 24.1902 85.9522 24.176C86.0091 24.1618 86.066 24.1476 86.1086 24.1191C86.1513 24.0907 86.1939 24.0481 86.2224 24.0054C86.2508 23.9628 86.265 23.9059 86.265 23.8349C86.265 23.7212 86.2082 23.6359 86.0944 23.5791C85.9807 23.5222 85.8243 23.4653 85.5968 23.4227C85.5541 23.4085 85.5115 23.3978 85.4688 23.3872C85.4261 23.3765 85.3835 23.3659 85.3409 23.3516C85.2556 23.3232 85.1703 23.2806 85.0992 23.2237C85.0281 23.1669 84.9712 23.11 84.9286 23.0247C84.8859 22.9395 84.8575 22.84 84.8575 22.7263C84.8575 22.5984 84.8859 22.4704 84.9428 22.3852C84.9997 22.2857 85.0708 22.2146 85.1561 22.1435C85.2414 22.0867 85.3409 22.0298 85.4546 22.0014C85.5684 21.973 85.6821 21.9588 85.8101 21.9588C85.9949 21.9588 86.1655 22.0014 86.3361 22.0583C86.5067 22.1293 86.6347 22.2288 86.7342 22.3709L86.3788 22.6268Z" fill="#A1A6BA"/>
<path d="M48.901 27.6297C49.0148 27.6724 49.0859 27.7434 49.1427 27.8287L49.5124 27.4876C49.4129 27.3455 49.2707 27.246 49.1001 27.1749C48.9295 27.1181 48.7446 27.0754 48.574 27.0754C48.375 27.0754 48.2044 27.1181 48.0338 27.1749C47.8774 27.2318 47.721 27.3313 47.6072 27.445C47.4793 27.5729 47.394 27.715 47.3229 27.8714C47.2518 28.0277 47.2234 28.2125 47.2234 28.4115C47.2234 28.6247 47.2518 28.8094 47.3229 28.9658C47.394 29.1221 47.4935 29.2642 47.6072 29.3779C47.721 29.4916 47.8631 29.5911 48.0338 29.648C48.2044 29.7191 48.375 29.7475 48.574 29.7475C48.7731 29.7475 48.9579 29.7191 49.1143 29.648C49.2707 29.5911 49.4129 29.4916 49.5124 29.3637L49.1712 29.0653C49.1001 29.1505 49.0148 29.2216 48.9152 29.2642C48.8015 29.3069 48.6878 29.3353 48.5598 29.3353C48.4176 29.3353 48.3039 29.3069 48.2044 29.2642C48.1048 29.2216 48.0195 29.1505 47.9485 29.0653C47.8774 28.9942 47.8347 28.8947 47.7921 28.781C47.7494 28.6815 47.7352 28.5536 47.7352 28.4399C47.7352 28.3262 47.7494 28.2125 47.7921 28.0988C47.8205 27.9993 47.8774 27.8998 47.9485 27.8145C48.0195 27.7292 48.1048 27.6582 48.2044 27.6155C48.3181 27.5729 48.4319 27.5445 48.5598 27.5445C48.6878 27.5445 48.8015 27.5729 48.901 27.6297Z" fill="#A1A6BA"/>
<path fill-rule="evenodd" clip-rule="evenodd" d="M52.555 28.4399C52.555 28.6388 52.5265 28.8094 52.4554 28.9799C52.3843 29.1363 52.2848 29.2784 52.1711 29.4063C52.0431 29.52 51.9009 29.6195 51.7303 29.6764C51.5597 29.7475 51.3891 29.7759 51.1901 29.7759C51.0052 29.7759 50.8204 29.7475 50.6498 29.6764C50.4792 29.6053 50.337 29.52 50.2233 29.4063C50.1095 29.2926 50.01 29.1505 49.9389 28.9799C49.8678 28.8236 49.8394 28.6388 49.8394 28.4399C49.8394 28.2409 49.8678 28.0703 49.9389 27.8998C50.01 27.7434 50.1095 27.6013 50.2233 27.4876C50.337 27.3739 50.4934 27.2744 50.6498 27.2175C50.8204 27.1465 50.991 27.1181 51.1901 27.1181C51.3749 27.1181 51.5597 27.1465 51.7303 27.2175C51.9009 27.2886 52.0431 27.3739 52.1711 27.4876C52.299 27.6013 52.3843 27.7434 52.4554 27.8998C52.5265 28.0703 52.555 28.2409 52.555 28.4399ZM52.0431 28.4399C52.0431 28.3262 52.0289 28.1982 51.9862 28.0988C51.9436 27.985 51.9009 27.8998 51.8299 27.8145C51.7588 27.7292 51.6735 27.6582 51.5597 27.6155C51.4602 27.5729 51.3322 27.5444 51.2043 27.5444C51.0621 27.5444 50.9484 27.5729 50.8488 27.6155C50.7493 27.6582 50.6498 27.7292 50.5787 27.8145C50.5076 27.8998 50.4507 27.9992 50.4223 28.0988C50.3797 28.2124 50.3654 28.3262 50.3654 28.4399C50.3654 28.5536 50.3797 28.6815 50.4223 28.781C50.465 28.8947 50.5076 28.9942 50.5787 29.0794C50.6498 29.1647 50.7351 29.2358 50.8488 29.2784C50.9484 29.3211 51.0763 29.3495 51.2043 29.3495C51.3465 29.3495 51.4602 29.3211 51.5597 29.2784C51.6592 29.2358 51.7588 29.1647 51.8299 29.0794C51.9009 28.9942 51.9578 28.8947 51.9862 28.781C52.0147 28.6815 52.0431 28.5678 52.0431 28.4399Z" fill="#A1A6BA"/>
<path d="M53.7131 27.2842C53.7098 27.2491 53.7066 27.216 53.7066 27.1891V27.2175H53.2516C53.2516 27.2585 53.2549 27.3028 53.2583 27.3488C53.262 27.3985 53.2658 27.4501 53.2658 27.5018V29.7332H53.7635V28.3972C53.7635 28.1414 53.8203 27.9424 53.9483 27.7861C54.0762 27.6297 54.2326 27.5587 54.4317 27.5587C54.5454 27.5587 54.6449 27.5729 54.716 27.6155C54.7871 27.6582 54.844 27.715 54.8866 27.7861C54.9293 27.8571 54.9577 27.9424 54.972 28.0277C54.9862 28.1272 55.0004 28.2267 55.0004 28.3262V29.719H55.498V28.1556C55.498 28.0135 55.4838 27.8856 55.4411 27.7576C55.4127 27.6297 55.3416 27.516 55.2705 27.4307C55.1852 27.3312 55.0857 27.2602 54.972 27.2033C54.844 27.1465 54.7018 27.1181 54.5454 27.1181C54.4459 27.1181 54.3606 27.1323 54.2753 27.1607C54.19 27.1749 54.1189 27.2175 54.0478 27.2602C53.9767 27.3028 53.9198 27.3597 53.863 27.4165C53.8061 27.4734 53.7635 27.5302 53.735 27.6013H53.7208V27.4023C53.7208 27.3962 53.7207 27.3899 53.7205 27.3836C53.7203 27.378 53.7201 27.3724 53.7198 27.3668C53.7184 27.3395 53.7157 27.3113 53.7131 27.2842Z" fill="#A1A6BA"/>
<path d="M58.9103 27.6013H58.242V28.9089C58.242 29.0653 58.2705 29.1648 58.3273 29.2358C58.3842 29.3069 58.4695 29.3353 58.5975 29.3353C58.6401 29.3353 58.697 29.3353 58.7397 29.3211C58.7612 29.3157 58.7806 29.3104 58.7988 29.305C58.8288 29.2961 58.8553 29.2873 58.8818 29.2785L58.896 29.6906C58.8392 29.7191 58.7681 29.7333 58.697 29.7475C58.6259 29.7617 58.5548 29.7617 58.4695 29.7617C58.2278 29.7617 58.043 29.6906 57.9292 29.5627C57.8013 29.4348 57.7444 29.2358 57.7444 28.9658V27.6013H57.261V27.1892H57.7444V26.4643H58.242V27.1892H58.9103V27.6013Z" fill="#A1A6BA"/>
<path d="M61.1929 29.6105C61.1946 29.6285 61.1963 29.6461 61.1975 29.6625C61.1982 29.6725 61.1988 29.682 61.1991 29.6911L61.1992 29.6959L61.1993 29.7002L61.1993 29.7049V29.6906H61.6401C61.6401 29.6497 61.6368 29.6054 61.6334 29.5594C61.6297 29.5097 61.6258 29.4581 61.6258 29.4064V27.175H61.1282V28.511C61.1282 28.7526 61.0713 28.9516 60.9434 29.1079C60.8296 29.2643 60.659 29.3353 60.46 29.3353C60.3462 29.3353 60.2467 29.3211 60.1756 29.2785C60.1045 29.2358 60.0477 29.179 60.005 29.1079C59.9624 29.0369 59.9339 28.9658 59.9197 28.8663L59.9197 28.8661C59.9055 28.7667 59.8913 28.6673 59.8913 28.5678V27.175H59.3937V28.7384C59.3937 28.8805 59.4079 29.0084 59.4505 29.1364C59.4932 29.2643 59.5501 29.3638 59.6211 29.4632C59.7065 29.5627 59.806 29.6338 59.9197 29.6906C60.0477 29.7475 60.1899 29.7759 60.3462 29.7759C60.5311 29.7759 60.6875 29.7333 60.8439 29.6338C61.0003 29.5485 61.114 29.4206 61.1709 29.2927H61.1851V29.4917C61.1851 29.5291 61.189 29.5706 61.1928 29.6097L61.1928 29.6098L61.1929 29.6105Z" fill="#A1A6BA"/>
<path d="M64.313 27.1891C64.313 27.2013 64.3136 27.2147 64.3146 27.229C64.3159 27.2464 64.3176 27.265 64.3195 27.2842C64.3212 27.3022 64.323 27.3208 64.3244 27.3392C64.326 27.3607 64.3272 27.3821 64.3272 27.4023V27.6013H64.3414C64.3698 27.5302 64.4125 27.4734 64.4694 27.4165C64.5262 27.3597 64.5831 27.3028 64.6542 27.2602C64.7253 27.2175 64.7964 27.1749 64.8817 27.1607C64.967 27.1323 65.0523 27.1181 65.1518 27.1181C65.3082 27.1181 65.4504 27.1465 65.5783 27.2033C65.6921 27.2602 65.7916 27.3312 65.8769 27.4307C65.948 27.516 66.0191 27.6297 66.0475 27.7576C66.0902 27.8856 66.1044 28.0135 66.1044 28.1556V29.719H65.6068V28.3262C65.6068 28.2267 65.5925 28.1272 65.5783 28.0277C65.5641 27.9424 65.5357 27.8571 65.493 27.7861C65.4504 27.715 65.3935 27.6582 65.3224 27.6155C65.2513 27.5729 65.1518 27.5587 65.0381 27.5587C64.839 27.5587 64.6826 27.6297 64.5547 27.7861C64.4267 27.9424 64.3698 28.1414 64.3698 28.3972V29.7332H63.8722V27.5018C63.8722 27.4501 63.8684 27.3985 63.8647 27.3488C63.8613 27.3028 63.858 27.2585 63.858 27.2175H64.313V27.1891Z" fill="#A1A6BA"/>
<path fill-rule="evenodd" clip-rule="evenodd" d="M69.3034 28.4256C69.3034 28.2267 69.2749 28.0419 69.2181 27.8713C69.1612 27.715 69.0759 27.5729 68.9764 27.4592C68.8768 27.3455 68.7489 27.2602 68.5925 27.2033C68.4503 27.1465 68.2797 27.1181 68.0949 27.1181C67.91 27.1181 67.7394 27.1465 67.583 27.2175C67.4267 27.2744 67.2845 27.3739 67.1707 27.4876C67.057 27.6013 66.9717 27.7434 66.9006 27.914C66.8295 28.0845 66.8011 28.2551 66.8011 28.4541C66.8011 28.6531 66.8295 28.8378 66.9006 28.9942C66.9575 29.1505 67.057 29.2926 67.1707 29.4063C67.2987 29.52 67.4409 29.6195 67.5973 29.6764C67.7537 29.7475 67.9385 29.7759 68.1233 29.7759C68.3508 29.7759 68.5498 29.7332 68.7347 29.648C68.9195 29.5627 69.0901 29.4348 69.2181 29.25L68.8626 28.9657C68.7915 29.0652 68.692 29.1647 68.5641 29.2358C68.4361 29.3069 68.2939 29.3495 68.1233 29.3495C68.0096 29.3495 67.91 29.3353 67.8105 29.2926C67.711 29.2642 67.6257 29.2074 67.5546 29.1363C67.4693 29.0652 67.4124 28.9942 67.3698 28.8947C67.3271 28.7952 67.2987 28.6957 67.2987 28.5962H69.3034V28.4256ZM68.7347 27.9424C68.7773 28.0277 68.7915 28.1272 68.7915 28.2267H67.2987C67.2987 28.1272 67.3271 28.0277 67.3698 27.9424C67.4124 27.8571 67.4693 27.7718 67.5404 27.715C67.6115 27.6439 67.6826 27.6013 67.7821 27.5587C67.8674 27.516 67.9811 27.5018 68.0807 27.5018C68.2086 27.5018 68.3081 27.516 68.3934 27.5587C68.4788 27.6013 68.5498 27.6582 68.6067 27.715C68.6636 27.7861 68.7062 27.8571 68.7347 27.9424Z" fill="#A1A6BA"/>
<path fill-rule="evenodd" clip-rule="evenodd" d="M70.1991 30.1312C70.3128 30.2591 70.4408 30.3586 70.6114 30.4297C70.782 30.5007 70.9526 30.5434 71.1232 30.5434C71.2938 30.5434 71.436 30.515 71.5497 30.4723C71.6635 30.4297 71.7488 30.3586 71.8199 30.2733C71.891 30.1881 71.9336 30.0886 71.962 29.9749C71.9905 29.8612 72.0047 29.7332 72.0047 29.6053V29.2784H71.9905C71.9052 29.4205 71.7772 29.5343 71.6066 29.6053C71.4502 29.6764 71.2796 29.719 71.0948 29.719C70.9099 29.719 70.7251 29.6906 70.5687 29.6195C70.4123 29.5485 70.2701 29.4632 70.1706 29.3495C70.0569 29.2358 69.9716 29.0937 69.9147 28.9373C69.8578 28.781 69.8294 28.6104 69.8294 28.4256C69.8294 28.2409 69.8578 28.0703 69.9147 27.914C69.9716 27.7576 70.0569 27.6155 70.1706 27.5018C70.2844 27.3881 70.4123 27.2886 70.5687 27.2175C70.7251 27.1465 70.8957 27.1181 71.0948 27.1181C71.2796 27.1181 71.4502 27.1607 71.6066 27.2318C71.7772 27.3028 71.9052 27.4307 72.0047 27.5871H72.0189V27.1891H72.5023V29.5769C72.5023 29.7617 72.4739 29.9322 72.4312 30.1028C72.3886 30.2733 72.3033 30.4155 72.2038 30.5434C72.09 30.6713 71.9478 30.7708 71.7772 30.8561C71.6066 30.9271 71.3791 30.9698 71.1232 30.9698C70.9099 30.9698 70.6825 30.9271 70.455 30.8561C70.2275 30.7708 70.0427 30.6571 69.8863 30.515L70.1991 30.1312ZM70.3412 28.4256C70.3412 28.5393 70.3555 28.6531 70.3981 28.7668C70.4408 28.8805 70.4834 28.9657 70.5687 29.051C70.6398 29.1363 70.7251 29.1931 70.8389 29.25C70.9384 29.2926 71.0663 29.3211 71.1943 29.3211C71.3223 29.3211 71.436 29.2926 71.5497 29.25C71.6635 29.2074 71.7488 29.1363 71.8199 29.0652C71.891 28.9799 71.9478 28.8947 71.9905 28.781C72.0331 28.6673 72.0473 28.5536 72.0473 28.4256C72.0473 28.3119 72.0331 28.1982 71.9905 28.0845C71.9478 27.985 71.891 27.8856 71.8199 27.8003C71.7488 27.715 71.6493 27.6582 71.5497 27.6013C71.4502 27.5587 71.3223 27.5302 71.1943 27.5302C71.0663 27.5302 70.9384 27.5587 70.8389 27.6013C70.7393 27.6439 70.654 27.715 70.5687 27.7861C70.4976 27.8713 70.4408 27.9566 70.3981 28.0703C70.3697 28.184 70.3412 28.2977 70.3412 28.4256Z" fill="#A1A6BA"/>
<path fill-rule="evenodd" clip-rule="evenodd" d="M75.8151 28.9799C75.8862 28.8094 75.9146 28.6388 75.9146 28.4399C75.9146 28.2409 75.8862 28.0703 75.8151 27.8998C75.744 27.7434 75.6587 27.6013 75.5307 27.4876C75.417 27.3739 75.2748 27.2886 75.1042 27.2175C74.9336 27.1465 74.7487 27.1181 74.5639 27.1181C74.3649 27.1181 74.1943 27.1465 74.0237 27.2175C73.8673 27.2744 73.7109 27.3739 73.5971 27.4876C73.4834 27.6013 73.3839 27.7434 73.3128 27.8998C73.2417 28.0703 73.2132 28.2409 73.2132 28.4399C73.2132 28.6388 73.2417 28.8236 73.3128 28.9799C73.3839 29.1505 73.4834 29.2926 73.5971 29.4063C73.7109 29.52 73.853 29.6053 74.0237 29.6764C74.1943 29.7475 74.3791 29.7759 74.5639 29.7759C74.763 29.7759 74.9336 29.7475 75.1042 29.6764C75.2606 29.6195 75.4028 29.52 75.5307 29.4063C75.6445 29.2784 75.744 29.1363 75.8151 28.9799ZM75.3459 28.0988C75.3885 28.1982 75.4028 28.3262 75.4028 28.4399C75.4028 28.5678 75.3743 28.6815 75.3459 28.781C75.3175 28.8947 75.2606 28.9942 75.1895 29.0794C75.1184 29.1647 75.0189 29.2358 74.9194 29.2784C74.8198 29.3211 74.7061 29.3495 74.5639 29.3495C74.436 29.3495 74.308 29.3211 74.2085 29.2784C74.0947 29.2358 74.0094 29.1647 73.9383 29.0794C73.8672 28.9942 73.8246 28.8947 73.7819 28.781C73.7393 28.6815 73.7251 28.5536 73.7251 28.4399C73.7251 28.3262 73.7393 28.2124 73.7819 28.0988C73.8104 27.9992 73.8672 27.8998 73.9383 27.8145C74.0094 27.7292 74.1089 27.6582 74.2085 27.6155C74.308 27.5729 74.4217 27.5444 74.5639 27.5444C74.6919 27.5444 74.8198 27.5729 74.9194 27.6155C75.0331 27.6582 75.1184 27.7292 75.1895 27.8145C75.2606 27.8998 75.3032 27.985 75.3459 28.0988Z" fill="#A1A6BA"/>
<path d="M78.3742 27.8287C78.3173 27.7434 78.2463 27.6724 78.1325 27.6297C78.033 27.5729 77.9193 27.5445 77.7913 27.5445C77.6633 27.5445 77.5496 27.5729 77.4359 27.6155C77.3363 27.6582 77.251 27.7292 77.1799 27.8145C77.1088 27.8998 77.052 27.9993 77.0235 28.0988C76.9809 28.2125 76.9667 28.3262 76.9667 28.4399C76.9667 28.5536 76.9809 28.6815 77.0235 28.781C77.0662 28.8947 77.1088 28.9942 77.1799 29.0653C77.251 29.1505 77.3363 29.2216 77.4359 29.2642C77.5354 29.3069 77.6491 29.3353 77.7913 29.3353C77.9193 29.3353 78.033 29.3069 78.1467 29.2642C78.2463 29.2216 78.3316 29.1505 78.4027 29.0653L78.7439 29.3637C78.6443 29.4916 78.5022 29.5911 78.3458 29.648C78.1894 29.7191 78.0046 29.7475 77.8055 29.7475C77.6065 29.7475 77.4359 29.7191 77.2652 29.648C77.0946 29.5911 76.9525 29.4916 76.8387 29.3779C76.725 29.2642 76.6255 29.1221 76.5544 28.9658C76.4833 28.8094 76.4548 28.6247 76.4548 28.4115C76.4548 28.2125 76.4833 28.0277 76.5544 27.8714C76.6255 27.715 76.7108 27.5729 76.8387 27.445C76.9525 27.3313 77.1089 27.2318 77.2652 27.1749C77.4359 27.1181 77.6065 27.0754 77.8055 27.0754C77.9761 27.0754 78.1609 27.1181 78.3316 27.1749C78.5022 27.246 78.6443 27.3455 78.7439 27.4876L78.3742 27.8287Z" fill="#A1A6BA"/>
<path d="M79.7249 26.5069C79.796 26.4501 79.8244 26.379 79.8244 26.2795C79.8244 26.18 79.796 26.109 79.7249 26.0379C79.6538 25.9668 79.5685 25.9384 79.4832 25.9384C79.3979 25.9384 79.3126 25.981 79.2557 26.0379C79.1846 26.0947 79.1562 26.18 79.1562 26.2653C79.1562 26.3506 79.1988 26.4216 79.2557 26.4927C79.3126 26.5638 79.3979 26.5922 79.4832 26.5922C79.5827 26.5922 79.6538 26.5638 79.7249 26.5069Z" fill="#A1A6BA"/>
<path d="M79.2415 29.7048H79.7391V27.1892H79.2415V29.7048Z" fill="#A1A6BA"/>
<path fill-rule="evenodd" clip-rule="evenodd" d="M83.1656 28.4399C83.1656 28.6388 83.1372 28.8094 83.0661 28.9799C82.995 29.1363 82.8955 29.2784 82.7817 29.4063C82.6537 29.52 82.5116 29.6195 82.3552 29.6764C82.1846 29.7475 82.014 29.7759 81.8149 29.7759C81.6301 29.7759 81.4453 29.7475 81.2746 29.6764C81.104 29.6053 80.9619 29.52 80.8481 29.4063C80.7344 29.2926 80.6348 29.1505 80.5638 28.9799C80.4927 28.8236 80.4642 28.6388 80.4642 28.4399C80.4642 28.2409 80.4927 28.0703 80.5638 27.8998C80.6348 27.7434 80.7344 27.6013 80.8481 27.4876C80.9619 27.3739 81.1183 27.2744 81.2746 27.2175C81.4453 27.1465 81.6159 27.1181 81.8149 27.1181C81.9997 27.1181 82.1846 27.1465 82.3552 27.2175C82.5258 27.2886 82.668 27.3739 82.7817 27.4876C82.9097 27.6013 82.995 27.7434 83.0661 27.8998C83.1372 28.0703 83.1656 28.2409 83.1656 28.4399ZM82.6537 28.4399C82.6537 28.3262 82.6395 28.1982 82.5969 28.0988C82.5542 27.985 82.5116 27.8998 82.4405 27.8145C82.3694 27.7292 82.2841 27.6582 82.1704 27.6155C82.0708 27.5729 81.9429 27.5444 81.8149 27.5444C81.6727 27.5444 81.559 27.5729 81.4595 27.6155C81.3599 27.6582 81.2604 27.7292 81.1893 27.8145C81.1182 27.8998 81.0614 27.9992 81.0329 28.0988C80.9903 28.2124 80.9761 28.3262 80.9761 28.4399C80.9761 28.5536 80.9903 28.6815 81.0329 28.781C81.0756 28.8947 81.1182 28.9942 81.1893 29.0794C81.2604 29.1647 81.3457 29.2358 81.4595 29.2784C81.559 29.3211 81.687 29.3495 81.8149 29.3495C81.9571 29.3495 82.0708 29.3211 82.1704 29.2784C82.2699 29.2358 82.3694 29.1647 82.4405 29.0794C82.5116 28.9942 82.5685 28.8947 82.5969 28.781C82.6253 28.6815 82.6537 28.5678 82.6537 28.4399Z" fill="#A1A6BA"/>
<path d="M84.3172 29.6338C84.3883 29.5628 84.4167 29.4917 84.4167 29.3922C84.4167 29.2927 84.3883 29.2074 84.3172 29.1506C84.2461 29.0795 84.1608 29.0511 84.0613 29.0511C83.9617 29.0511 83.8764 29.0795 83.8054 29.1506C83.7343 29.2074 83.7058 29.2927 83.7058 29.3922C83.7058 29.4775 83.7343 29.5628 83.8054 29.6338C83.8764 29.7049 83.9617 29.7333 84.0613 29.7333C84.1608 29.7333 84.2461 29.7049 84.3172 29.6338Z" fill="#A1A6BA"/>
</svg>
