<svg width="129" height="26" viewBox="0 0 129 26" fill="none" xmlns="http://www.w3.org/2000/svg">
<path d="M11.7609 5.50435C11.8463 3.96694 11.9316 2.48079 12.017 0.994629H0.666992V2.61744C0.737017 2.62545 0.806807 2.63346 0.876473 2.64146L1.1117 2.66855C1.55692 2.71985 2.00211 2.77113 2.47616 2.82243V17.7523C1.92999 17.8377 1.41797 17.9231 0.871806 18.0256V19.6655H12.273C12.2388 18.8798 12.209 18.1025 12.1791 17.3253C12.1492 16.548 12.1194 15.7708 12.0852 14.985C11.6913 14.9682 11.3096 14.9555 10.9303 14.943C10.5372 14.9299 10.1465 14.917 9.74696 14.8996C9.71207 15.2089 9.67718 15.5124 9.64271 15.8122C9.55916 16.5389 9.4781 17.2438 9.40561 17.9573H5.92381V10.9023H7.4087C7.52817 11.4148 7.66471 11.9273 7.80125 12.3885H9.32027V7.81045H7.76712C7.64764 8.32292 7.52817 8.80122 7.4087 9.27952H5.90675V2.63452H9.37147C9.39707 3.10428 9.42268 3.5655 9.44828 4.02673C9.47388 4.48795 9.49948 4.94917 9.52508 5.41893C9.90168 5.43568 10.266 5.44833 10.628 5.46089C11.0043 5.47395 11.3782 5.48693 11.7609 5.50435Z" fill="#A1A6BA"/>
<path fill-rule="evenodd" clip-rule="evenodd" d="M52.4207 25.3895V25.3897C52.4092 25.5812 52.3972 25.7783 52.3819 25.9859H58.0313C58.0478 25.7713 58.0603 25.5647 58.0726 25.3603C58.0859 25.1416 58.099 24.9255 58.1166 24.7047C57.6387 24.6022 57.2291 24.5168 56.8195 24.4314V19.4263C56.9048 19.4434 56.956 19.4605 57.0072 19.4776C57.7923 19.8363 58.6116 19.9046 59.4649 19.8363C61.1205 19.6996 62.3152 18.8797 62.9809 17.3423C63.1857 16.8298 63.3393 16.3003 63.4417 15.7536C63.7318 14.2846 63.7148 12.7984 63.5953 11.3293C63.5441 10.6119 63.3905 9.87734 63.1857 9.19405C62.7078 7.65665 61.7691 6.58047 60.0623 6.40965C58.6969 6.27299 57.5022 6.6488 56.5805 7.7079C56.5718 7.71663 56.5631 7.72487 56.5543 7.73278C56.5505 7.73624 56.5467 7.73963 56.5429 7.74298L56.5371 7.74808C56.5259 7.75768 56.5148 7.76694 56.5037 7.7762C56.4781 7.79756 56.4525 7.81893 56.4269 7.84455C56.3293 7.50245 56.2403 7.17782 56.1476 6.83942L56.1468 6.83632C56.1102 6.70259 56.0729 6.56671 56.0343 6.42673C54.7372 6.61464 53.4913 6.78546 52.2453 6.95628V8.2887C52.6672 8.36148 53.0766 8.42187 53.4736 8.48041C53.5424 8.49057 53.6109 8.50066 53.679 8.51077V24.4314C53.2694 24.5339 52.8769 24.6193 52.4672 24.7047C52.4485 24.9295 52.4349 25.1543 52.4208 25.3875L52.4208 25.3885L52.4207 25.3895ZM59.7892 17.7693C58.7822 18.111 57.8094 18.0939 56.8024 17.6669V9.8261C56.8024 9.14281 57.2291 8.63034 57.9118 8.49369C57.9801 8.49369 58.0313 8.4766 58.0825 8.45952C59.2089 8.27161 59.9428 8.69867 60.2842 9.77486C60.4378 10.2702 60.5402 10.7998 60.5743 11.3123C60.6767 12.8497 60.7109 14.3871 60.489 15.9074C60.4402 16.2612 60.348 16.6149 60.2557 16.9687L60.2556 16.969L60.2337 17.0529L60.2175 17.1155L60.2128 17.1337L60.2007 17.1807L60.192 17.215C60.1768 17.2745 60.162 17.334 60.1476 17.3935C60.0964 17.5814 59.994 17.701 59.7892 17.7693Z" fill="#A1A6BA"/>
<path d="M94.6072 18.0427C95.0851 18.1452 95.5117 18.2306 95.9384 18.316C95.9299 18.5466 95.9171 18.7687 95.9043 18.9907C95.8915 19.2128 95.8787 19.4349 95.8702 19.6655H91.5179C91.5179 19.6142 91.5136 19.5673 91.5094 19.5203C91.5051 19.4733 91.5009 19.4263 91.5009 19.3751C91.5009 18.4128 91.5027 17.4505 91.5046 16.4882C91.5084 14.5636 91.5122 12.639 91.5009 10.7144C91.5009 10.3215 91.4155 9.9286 91.296 9.55279C91.1595 9.10865 90.784 8.85242 90.3232 8.74993C89.8794 8.64743 89.4357 8.6816 89.026 8.85242C88.6676 9.00616 88.3775 9.29655 88.3775 9.72361V17.9231C88.3775 17.9418 88.3826 17.9554 88.3901 17.9752C88.3962 17.9914 88.4039 18.0118 88.4116 18.0427C88.8042 18.1281 89.2138 18.2135 89.6917 18.2989C89.6736 18.534 89.6603 18.7691 89.6467 19.0093L89.6467 19.0101L89.6466 19.0113C89.6346 19.2242 89.6224 19.4411 89.6063 19.6655H84.0082V18.316C84.4349 18.2306 84.8274 18.1452 85.2541 18.0427V8.64743L85.1006 8.63039L85.0997 8.6303L85.0992 8.63024L85.0987 8.63018C84.6861 8.58449 84.26 8.5373 83.8204 8.47661V7.09295C85.0322 6.92213 86.244 6.75131 87.507 6.56341C87.5852 6.83166 87.6561 7.09992 87.7244 7.3586L87.725 7.36082L87.7259 7.36407C87.7615 7.49884 87.7964 7.63099 87.8313 7.75916C87.9199 7.69264 88.0103 7.62072 88.1031 7.54691L88.1033 7.54675C88.2964 7.39316 88.4998 7.23138 88.7188 7.09295C89.9306 6.32425 91.2448 6.18759 92.5932 6.66589C93.7196 7.07587 94.317 7.96414 94.5047 9.12573C94.5559 9.4503 94.573 9.77487 94.573 10.0994V17.5302C94.6072 17.7181 94.6072 17.8719 94.6072 18.0427Z" fill="#A1A6BA"/>
<path d="M18.6089 18.2135C18.3282 18.1566 18.0475 18.0996 17.7517 18.0427C17.7506 18.0331 17.7497 18.0236 17.7487 18.0142L17.7478 18.0054L17.7463 17.9889L17.7454 17.9785C17.7428 17.9496 17.7406 17.9212 17.7384 17.8927C17.7308 17.794 17.7233 17.6953 17.7005 17.5815V16.0441C17.7005 15.35 17.7024 14.6579 17.7043 13.9663L17.7043 13.9626V13.9588C17.7081 12.5764 17.7119 11.1965 17.7005 9.80904C17.7005 9.55281 17.7858 9.3649 17.9394 9.15991C18.3491 8.66453 18.9123 8.64744 19.4585 8.6987C20.2265 8.76702 20.6703 9.22824 20.7897 9.97987C20.8409 10.3044 20.8751 10.629 20.8751 10.9535V19.6484H25.2444V18.948C25.2444 18.726 25.2615 18.5039 25.2785 18.2818C25.0481 18.2391 24.8305 18.1964 24.6128 18.1537C24.3952 18.111 24.1776 18.0683 23.9472 18.0256V10.0482C23.9472 9.70654 23.9302 9.34782 23.8619 9.02325C23.6059 7.74208 22.872 6.85381 21.5748 6.54633C20.09 6.1876 18.7246 6.478 17.5469 7.48585C17.4894 7.53519 17.4319 7.5885 17.3763 7.64003L17.376 7.64025C17.3162 7.69569 17.2586 7.74909 17.2055 7.79333C17.1839 7.71601 17.1628 7.63981 17.1421 7.56443C17.1189 7.48009 17.0962 7.39677 17.0736 7.31406L17.0734 7.313C17.0048 7.06164 16.9377 6.81576 16.8642 6.56342C15.5841 6.75132 14.3723 6.92214 13.1605 7.09296V8.47662C13.6384 8.52787 14.1163 8.57912 14.5771 8.63036C14.6795 9.10866 14.6454 17.7352 14.5601 18.0427L14.5597 18.0427C14.1673 18.1281 13.7748 18.2135 13.3653 18.2989C13.3564 18.5505 13.3427 18.7878 13.3292 19.0209C13.3171 19.2311 13.3052 19.4378 13.2971 19.6484H18.9464C18.9635 19.4178 18.9763 19.1956 18.9891 18.9735L18.9891 18.9733L18.9893 18.9707C19.002 18.7496 19.0148 18.5285 19.0318 18.2989C18.8899 18.2705 18.75 18.2421 18.61 18.2138L18.6089 18.2135Z" fill="#A1A6BA"/>
<path d="M114.593 8.30577C114.342 8.27883 114.096 8.25662 113.847 8.23416L113.846 8.2341C113.621 8.21385 113.394 8.19339 113.16 8.16911V6.95626C113.787 6.88732 114.415 6.81494 115.046 6.74219L115.047 6.74204L115.05 6.74172L115.053 6.74132L115.062 6.74025C115.833 6.65145 116.607 6.56213 117.392 6.47796C117.416 6.55171 117.44 6.62446 117.464 6.69654C117.612 7.14206 117.751 7.56194 117.751 8.03244C117.739 10.1492 117.743 12.2659 117.747 14.3775V14.3858C117.749 15.4411 117.751 16.4951 117.751 17.5473V18.0597C118.212 18.1451 118.621 18.2306 119.065 18.333C119.039 18.5637 119.018 18.7857 118.997 19.0078C118.975 19.2299 118.954 19.4519 118.928 19.6825H115.293C115.242 19.5204 115.186 19.354 115.129 19.1812L115.129 19.1807C115.071 19.0077 115.011 18.8284 114.952 18.6405C114.832 18.7259 114.747 18.7943 114.662 18.8626C113.177 20.2121 111.18 20.0754 109.917 19.4605C108.927 18.9822 108.398 18.1622 108.227 17.1031C108.159 16.7615 108.142 16.4027 108.142 16.044V8.33993C107.812 8.30579 107.497 8.27165 107.183 8.23752C107.025 8.22041 106.868 8.2033 106.708 8.18619V6.97335C107.724 6.86036 108.74 6.73815 109.776 6.61348C110.15 6.56852 110.527 6.52324 110.907 6.47796C110.943 6.62501 110.988 6.76714 111.033 6.90795L111.033 6.90836L111.034 6.91098C111.133 7.22722 111.231 7.53668 111.231 7.87871V15.3949C111.231 15.7365 111.248 16.0782 111.299 16.4198C111.419 17.3423 112.016 17.8889 112.938 17.906C113.262 17.906 113.586 17.8547 113.911 17.7693C114.252 17.6839 114.696 17.086 114.696 16.7444V8.4595C114.644 8.40825 114.627 8.37409 114.593 8.30577Z" fill="#A1A6BA"/>
<path fill-rule="evenodd" clip-rule="evenodd" d="M46.0839 16.7957C45.5206 15.9586 45.35 15.0191 45.35 13.96C47.5176 13.9258 49.6169 13.9088 51.7674 13.8917C51.7994 13.7903 51.8397 13.6889 51.8801 13.5874C51.9688 13.3643 52.0575 13.1411 52.0575 12.918C52.0575 11.9443 51.9551 10.9706 51.682 10.014C51.409 9.0745 51.0164 8.22039 50.3166 7.5371C49.1219 6.39258 47.6882 6.20467 46.1521 6.52924C44.5307 6.87088 43.4725 7.87874 42.7898 9.34781C42.3631 10.2532 42.1583 11.1927 42.073 12.1835C41.9364 13.7892 42.0901 15.3608 42.7898 16.8469C43.4213 18.1964 44.3771 19.2043 45.8449 19.6313C47.6029 20.1438 49.2585 19.8534 50.8287 18.9993C50.9929 18.9226 51.136 18.8178 51.2806 18.7119C51.3614 18.6527 51.4427 18.5932 51.5284 18.5381C51.3407 18.111 51.17 17.7181 50.9993 17.3252L50.9989 17.3253L50.9974 17.3258C50.8449 17.3768 50.7429 17.4108 50.6409 17.4619C49.8558 17.7864 49.0536 17.9573 48.2003 17.9402C47.2957 17.9231 46.5959 17.5302 46.0839 16.7957ZM49.2055 11.8128C49.2161 11.9564 49.2273 12.1068 49.2414 12.2689C47.9101 12.3372 46.63 12.3884 45.35 12.4397C45.3467 12.4198 45.3427 12.4012 45.3385 12.3834C45.3358 12.3724 45.3331 12.3617 45.3303 12.3513C45.3283 12.3436 45.3263 12.3361 45.3243 12.3287C45.3109 12.2792 45.2988 12.2343 45.2988 12.1835C45.35 11.056 45.5548 9.96277 45.9815 8.90368C46.118 8.59619 46.3228 8.40829 46.6471 8.3058C47.4664 8.04956 48.0978 8.27163 48.5245 9.02324C48.9171 9.70653 49.0707 10.4582 49.156 11.2269C49.1761 11.4175 49.1903 11.6081 49.2055 11.8126V11.8128Z" fill="#A1A6BA"/>
<path fill-rule="evenodd" clip-rule="evenodd" d="M102.963 13.9166L102.96 13.9166C101.875 13.9296 100.797 13.9426 99.7103 13.96C99.6591 14.4212 99.7274 14.8483 99.8127 15.2754C99.9322 15.9245 100.171 16.5224 100.615 17.0348C101.11 17.6156 101.724 17.906 102.475 17.9231C103.295 17.9573 104.08 17.8035 104.848 17.496C105.001 17.4277 105.155 17.3765 105.36 17.3081L105.361 17.3102L105.361 17.3111C105.531 17.703 105.702 18.095 105.889 18.5381C105.876 18.5478 105.863 18.5569 105.85 18.5657C105.839 18.5731 105.828 18.5802 105.817 18.5873C105.807 18.5937 105.796 18.6001 105.786 18.6064C105.768 18.6176 105.75 18.6289 105.733 18.6407C105.716 18.6514 105.7 18.6626 105.684 18.6747C104.319 19.6313 102.782 20.0071 101.161 19.8192C99.1471 19.5972 97.7987 18.4185 97.0648 16.5736C96.1261 14.1992 96.1603 11.7906 97.1331 9.41614C97.7646 7.89582 98.8569 6.85381 100.512 6.49507C101.81 6.22176 103.056 6.30717 104.182 7.07587C104.984 7.62251 105.479 8.42536 105.821 9.31364C106.264 10.4582 106.435 11.6539 106.401 12.8667C106.389 13.1106 106.307 13.3458 106.224 13.5847L106.224 13.5855C106.21 13.6255 106.196 13.6655 106.182 13.7056C106.174 13.7283 106.167 13.7511 106.159 13.7739C106.154 13.79 106.149 13.8062 106.144 13.8223C106.138 13.8397 106.133 13.8571 106.128 13.8746C105.057 13.8913 104.007 13.904 102.963 13.9166ZM103.568 12.2689C103.533 11.3806 103.431 10.5436 103.175 9.7407C103.038 9.33073 102.851 8.972 102.578 8.63035C102.066 7.98123 100.512 8.10081 100.274 9.00616C100.218 9.21749 100.157 9.42882 100.096 9.64102C99.9483 10.1492 99.7996 10.6625 99.7274 11.1927C99.7188 11.2618 99.7092 11.3304 99.6996 11.399C99.6523 11.7371 99.6052 12.0733 99.6762 12.4568C100.36 12.4208 101.034 12.3895 101.713 12.358C102.323 12.3297 102.938 12.3012 103.568 12.2689Z" fill="#A1A6BA"/>
<path fill-rule="evenodd" clip-rule="evenodd" d="M80.1091 13.9169C81.1628 13.9043 82.2208 13.8915 83.2913 13.8747C83.3223 13.7764 83.3611 13.6765 83.4002 13.576C83.4902 13.3448 83.5814 13.1101 83.5814 12.8839C83.5814 11.5857 83.4107 10.3216 82.8987 9.12582C82.5061 8.20337 81.9429 7.41759 81.0383 6.9222C79.6729 6.17059 78.2393 6.23891 76.8397 6.78555C75.645 7.26385 74.8599 8.18629 74.3308 9.3308C73.8699 10.3045 73.6651 11.3465 73.5969 12.4227C73.4774 14.0113 73.6822 15.5658 74.4161 17.0178C75.1329 18.4356 76.2423 19.4264 77.8296 19.7339C79.5193 20.0755 81.1407 19.751 82.6086 18.8285C82.6853 18.7773 82.7579 18.7218 82.8304 18.6663L82.8306 18.6661C82.9031 18.6106 82.9756 18.5552 83.0523 18.504C82.9398 18.2481 82.8335 18.0045 82.7295 17.7658C82.66 17.6061 82.5916 17.4486 82.5232 17.2911C82.4204 17.3379 82.3278 17.3745 82.2398 17.4092L82.2395 17.4093C82.167 17.4379 82.0976 17.4653 82.0283 17.4961C81.2431 17.8207 80.441 17.9573 79.6047 17.9232C78.8708 17.9061 78.2563 17.5986 77.7955 17.0349C77.0616 16.1637 76.8909 15.1217 76.8738 13.9601C77.9537 13.9428 79.0291 13.9299 80.1091 13.9169ZM80.7222 11.9184C80.7303 12.0319 80.7386 12.1484 80.7482 12.269C80.0471 12.3049 79.3602 12.3362 78.6675 12.3677L78.6639 12.3678C78.0425 12.3961 77.4165 12.4246 76.7714 12.4569C76.7851 12.2992 76.7961 12.1552 76.8065 12.0184L76.8066 12.0173C76.8221 11.8137 76.8364 11.6258 76.8568 11.4319C76.9762 10.5266 77.164 9.63828 77.5395 8.80125C77.6419 8.57918 77.7955 8.44253 78.0174 8.35711C78.8878 8.01547 79.5876 8.23754 80.0484 9.05748C80.4068 9.68953 80.5604 10.3899 80.6458 11.0903C80.6825 11.36 80.7017 11.6297 80.7222 11.9184Z" fill="#A1A6BA"/>
<path d="M36.9016 6.56351C36.9528 6.76003 36.9997 6.95228 37.0467 7.14453C37.0936 7.33663 37.1405 7.52873 37.1917 7.7251C37.2685 7.68239 37.3453 7.63541 37.4221 7.58844L37.4223 7.58832C37.4991 7.54139 37.5758 7.49445 37.6525 7.45179C38.5571 6.92224 39.53 6.68309 40.5711 6.56351C41.0661 6.51227 41.4245 6.66601 41.7146 7.09307C41.6227 7.96055 41.5207 8.84827 41.4163 9.75621L41.4162 9.75765C41.3849 10.0292 41.3535 10.3026 41.3221 10.5778C40.9646 10.5608 40.6199 10.548 40.2753 10.5352L40.2696 10.535H40.2689C39.9245 10.5223 39.58 10.5095 39.2228 10.4924C39.1374 9.86038 39.0691 9.24542 39.0009 8.63047C38.4889 8.66462 38.0622 8.81837 37.6696 9.09168V18.0599C37.9653 18.1309 38.2529 18.1937 38.555 18.2597C38.6887 18.289 38.8253 18.3188 38.9667 18.3503C38.9584 18.5666 38.9461 18.7748 38.9336 18.9848C38.9205 19.2059 38.9072 19.429 38.8985 19.6656H33.3174V18.3673C33.7099 18.2649 34.1025 18.1623 34.478 18.0769V8.66462C34.3296 8.64813 34.1848 8.63164 34.0413 8.61514C33.9619 8.60601 33.8828 8.59689 33.8038 8.58776C33.644 8.5693 33.4841 8.55083 33.3211 8.53238L33.1296 8.51089V7.12722C34.1 6.96537 35.0809 6.82481 36.0893 6.68032L36.104 6.67823C36.3678 6.64042 36.6336 6.60233 36.9016 6.56351Z" fill="#A1A6BA"/>
<path d="M119.901 18.3502C119.867 18.7772 119.85 19.2043 119.833 19.6655C121.728 19.6655 123.571 19.6655 125.482 19.6143C125.499 19.3921 125.512 19.1741 125.525 18.9562C125.538 18.7385 125.551 18.5209 125.568 18.2989C125.396 18.2608 125.23 18.2227 125.067 18.1854C124.792 18.1225 124.528 18.0622 124.271 18.0085V8.97203C124.697 8.81828 125.124 8.66455 125.585 8.51081C125.616 8.76392 125.646 9.00766 125.674 9.24636L125.675 9.24813C125.723 9.65318 125.77 10.0438 125.824 10.4411C126.174 10.4582 126.519 10.471 126.865 10.4838C127.21 10.4966 127.556 10.5094 127.906 10.5265C127.941 10.2164 127.977 9.90868 128.012 9.6035C128.112 8.73179 128.21 7.88124 128.299 7.05882C127.991 6.59759 127.599 6.44386 127.104 6.54635C126.936 6.58094 126.768 6.61124 126.601 6.64139L126.601 6.64149C126.19 6.71552 125.785 6.78866 125.397 6.92216C125.022 7.04737 124.662 7.22567 124.307 7.40147L124.306 7.40172C124.128 7.48967 123.952 7.57699 123.776 7.65669C123.734 7.49692 123.692 7.32474 123.648 7.14422C123.602 6.958 123.555 6.76292 123.503 6.56343C122.24 6.75134 120.994 6.92216 119.696 7.09298V8.47664C120.114 8.53428 120.495 8.57977 120.86 8.62335C120.928 8.63143 120.995 8.63944 121.062 8.64746V18.0598C120.923 18.0945 120.79 18.1273 120.66 18.1595C120.405 18.2222 120.161 18.2824 119.901 18.3502Z" fill="#A1A6BA"/>
<path d="M69.6803 8.84705L69.6784 8.84774C69.5001 8.91355 69.3283 8.97695 69.1593 9.04035V18.0598C69.3797 18.1107 69.5959 18.1574 69.812 18.204L69.8209 18.2059C70.037 18.2526 70.2532 18.2993 70.4735 18.3502C70.4647 18.4653 70.4558 18.5793 70.447 18.6928C70.4357 18.8377 70.4244 18.9818 70.4131 19.1262C70.3991 19.3047 70.3851 19.4837 70.3711 19.6655H64.79V18.3673L65.9677 18.0598V8.64746C65.8331 8.63249 65.6999 8.61752 65.5674 8.60256C65.473 8.5919 65.379 8.58125 65.285 8.57059L65.2706 8.56896C65.0493 8.54389 64.8278 8.5188 64.6023 8.49372V7.11006C65.8482 6.93924 67.0771 6.76842 68.3913 6.5805C68.4425 6.76835 68.4979 6.9562 68.5534 7.14405C68.6089 7.33201 68.6644 7.51998 68.7156 7.70794C68.8669 7.63223 69.0126 7.55376 69.1572 7.47585L69.1575 7.47573C69.3718 7.36032 69.5838 7.24618 69.8079 7.14423C70.4906 6.81966 71.2416 6.70008 71.9926 6.5805C72.4875 6.51218 72.8801 6.63176 73.2044 7.09297C73.1648 7.4608 73.1233 7.83425 73.0813 8.21332L73.0804 8.22057L73.0803 8.22135C72.9957 8.98405 72.9085 9.76953 72.8289 10.5778C72.485 10.5694 72.1452 10.5568 71.8035 10.5443C71.4499 10.5312 71.0941 10.5181 70.7296 10.5094C70.6742 10.0773 70.626 9.67387 70.5757 9.25259C70.5485 9.02445 70.5206 8.79098 70.4906 8.54496C70.2005 8.6551 69.9338 8.75349 69.6803 8.84705Z" fill="#A1A6BA"/>
<path d="M29.7502 6.7342V4.08645C29.311 4.10689 28.8901 4.12734 28.4693 4.14779C28.1869 4.16151 27.9046 4.17523 27.6167 4.18894C27.4764 4.68067 27.3301 5.1724 27.1849 5.66068C27.0829 6.00354 26.9814 6.34471 26.8828 6.68295C26.6077 6.69915 26.344 6.71151 26.0846 6.72367C25.7969 6.73716 25.5145 6.7504 25.2273 6.76836C25.2182 7.07745 25.2043 7.36719 25.1907 7.65045C25.1787 7.89945 25.167 8.14344 25.159 8.39118C25.3812 8.42824 25.5938 8.4621 25.8037 8.49552C26.0775 8.53911 26.3467 8.58198 26.6268 8.63032C26.6439 8.78407 26.661 8.93781 26.661 9.09154V16.7786C26.661 17.0348 26.661 17.291 26.6951 17.5473C26.8316 18.7772 27.6338 19.5971 28.8456 19.8021C29.6478 19.9388 30.4329 19.8875 31.218 19.7338C31.5764 19.6654 31.9349 19.5971 32.2762 19.3751C32.2479 19.1299 32.2249 18.8847 32.2013 18.6337C32.1821 18.4301 32.1626 18.2227 32.1397 18.0085C31.9764 18.0085 31.8191 18.0105 31.6657 18.0124C31.3702 18.0162 31.0893 18.0197 30.8084 18.0085C30.2793 17.9914 29.9038 17.6498 29.8355 17.1202C29.8185 16.9494 29.8185 16.7786 29.8185 16.6077C29.8014 14.0625 29.8014 11.5172 29.8014 8.97197C29.8014 8.86583 29.8148 8.77314 29.8298 8.67001L29.8355 8.63032C30.2125 8.58431 30.5796 8.54325 30.9502 8.50182C31.2674 8.46634 31.5871 8.43058 31.9178 8.39118C31.9306 8.25428 31.9434 8.11845 31.9563 7.98262C31.9946 7.57609 32.033 7.16954 32.0714 6.7342H29.7502Z" fill="#A1A6BA"/>
</svg>
