<svg width="121" height="21" viewBox="0 0 121 21" fill="none" xmlns="http://www.w3.org/2000/svg">
<path fill-rule="evenodd" clip-rule="evenodd" d="M14.6481 5.37675V1.54239L14.5796 1.47392H0.538554V1.61086C1.01801 1.67933 2.25088 2.63792 2.25088 4.14428V17.5645C2.25088 20.0979 0.949513 20.3718 0.401568 20.6457C0.264582 20.6457 0.264582 20.7826 0.401568 20.7826H7.45636C7.52486 20.7826 7.52486 20.6457 7.45636 20.6457C6.29198 20.0294 5.33308 19.6871 5.33308 17.496V11.1283H10.1961C11.3605 11.1283 12.5933 12.4292 13.0728 13.4563H13.2098V7.36239H13.0728C12.8673 8.52639 11.429 9.69039 10.1961 9.69039H5.40157V2.98028H10.9495C12.5933 2.98028 14.1002 4.28122 14.5112 5.44522C14.5112 5.51369 14.6481 5.51369 14.6481 5.37675ZM50.0591 18.3177L46.155 11.6076C46.7029 11.4706 47.3194 11.1967 48.0043 10.8544C51.429 8.80027 50.8125 4.48663 49.0317 3.04875C47.7303 2.02169 46.9769 1.54239 44.4427 1.47392H34.8536V1.54239C36.292 2.02169 36.8399 2.63792 36.9084 4.0758V17.5645C36.9084 20.0979 35.744 20.0294 34.9221 20.6457V20.8511H41.7714V20.7142C40.3331 20.0294 39.9221 19.6186 39.9221 17.5645V11.9499H43.1413L47.8673 20.8511H52.5249V20.5087C51.7029 20.3718 51.2235 20.2349 50.0591 18.3177ZM43.2783 10.512H39.8536V2.84333H43.6892C48.0728 2.84333 48.4838 10.512 43.2783 10.512ZM99.3742 1.61086C100.744 2.29557 101.223 2.70639 101.223 4.76051V14.6887L90.6071 1.47392H86.2235V1.61086C87.5934 2.29557 88.0728 2.70639 88.0728 4.76051H88.0043V16.7429C88.0043 19.2763 87.0454 20.0294 86.2235 20.6457V20.8511H91.7029V20.7142C90.2646 20.0294 89.6481 19.4132 89.6481 17.2222V5.65063L101.977 20.8511H102.799V4.76051C102.799 2.2271 103.826 2.2271 104.648 1.67933V1.47392H99.5112V1.61086H99.3742ZM80.0591 1.61086C81.429 2.29557 81.9084 2.70639 81.9084 4.76051V15.5789C81.9084 17.633 80.607 19.5502 77.3194 19.5502C73.6892 19.5502 72.3879 17.2222 72.3879 15.5104V4.76051C72.3879 2.2271 73.3468 2.2271 74.1687 1.67933V1.47392H67.3879V1.61086C68.7577 2.29557 69.2372 2.70639 69.2372 4.76051V14.9626C69.2372 17.0167 70.3331 20.988 77.3194 20.988C82.4564 20.988 83.7577 17.5645 83.7577 14.8942L83.6892 4.69204C83.6892 2.15863 84.7166 2.15863 85.5386 1.61086V1.47392H80.1276V1.61086H80.0591ZM120.539 15.9897C119.854 18.1807 117.662 19.4132 114.511 19.4132C110.95 19.4132 110.402 18.3177 110.265 17.496V11.2652H114.648C117.182 11.2652 117.456 12.2923 118.073 13.1139H118.21V8.0471H118.073C117.388 9.34804 116.771 9.82733 114.922 9.8958H110.333V2.77486H115.47C116.84 2.77486 119.237 4.21275 119.511 5.44522H119.58V1.47392H105.265V1.61086C106.566 2.2271 107.045 2.63792 107.114 4.0758V17.9753C107.045 19.4817 106.566 20.0294 105.265 20.6457V20.8511H119.785L120.676 15.9897H120.539ZM65.6071 1.47392H53.2783C52.8673 1.40545 52.4564 1.33698 52.3879 1.0631L51.4975 5.78757L51.566 5.85604C53.1413 3.25416 53.5523 2.77486 57.8673 2.77486V17.4276C57.8673 19.961 56.566 20.0294 55.8125 20.7142V20.8511H63.1413V20.7142C62.3194 20.0979 61.0865 20.0294 61.0865 17.4276V2.77486C65.4016 2.77486 65.744 3.25416 67.4564 5.85604V5.78757L66.4975 1.13157C66.3605 1.33698 66.018 1.40545 65.6071 1.47392ZM25.0591 0.994629C19.2372 0.994629 14.5796 5.44522 14.5796 10.9913C14.5796 16.5374 19.2372 20.988 25.0591 20.988C30.881 20.988 35.5386 16.5374 35.5386 10.9913C35.607 5.44522 30.881 0.994629 25.0591 0.994629ZM25.0591 19.7556C21.292 19.7556 18.2098 15.7843 18.2098 10.9913C18.2098 6.19839 21.292 2.36404 25.0591 2.36404C28.8947 2.36404 31.9084 6.26686 31.9084 10.9913C31.9084 15.7843 28.8947 19.7556 25.0591 19.7556Z" fill="#A1A6BA"/>
</svg>
