<svg width="103" height="19" viewBox="0 0 103 19" fill="none" xmlns="http://www.w3.org/2000/svg">
<path d="M15.2897 6.97347V18.6437H19.7568V0.994629H13.5759L9.97983 10.739L6.35562 0.994629H0.174805V18.6437H4.61375V6.97347L8.99651 18.6437H10.9631L15.2897 6.97347Z" fill="#A1A6BA"/>
<path fill-rule="evenodd" clip-rule="evenodd" d="M28.5785 17.3791V18.6726H32.596V10.6816C32.596 6.71489 29.7865 5.56511 26.7804 5.56511C24.87 5.56511 22.7067 6.14 21.1053 7.54848L22.5662 10.3654C23.5776 9.47435 24.8138 8.98571 26.0499 8.98571C27.6513 8.98571 28.5785 9.73305 28.5785 10.8541V12.1188C27.8199 11.1703 26.359 10.6241 24.7014 10.6241C22.791 10.6241 20.4029 11.6589 20.4029 14.7633C20.4029 17.609 22.791 18.96 24.7014 18.96C26.3028 18.96 27.7918 18.3277 28.5785 17.3791ZM28.5785 14.2172V15.367C28.1851 15.9706 27.2299 16.2868 26.359 16.2868C25.3195 16.2868 24.3643 15.8269 24.3643 14.8208C24.3643 13.8148 25.3195 13.3261 26.359 13.3261C27.2299 13.3261 28.157 13.6136 28.5785 14.2172Z" fill="#A1A6BA"/>
<path d="M32.8488 16.9765L34.5064 14.0734C35.4335 14.9069 37.4282 15.798 38.8891 15.798C40.0691 15.798 40.5748 15.4531 40.5748 14.9069C40.5748 14.3442 39.6562 14.1894 38.4731 13.9899C36.3327 13.6292 33.3264 13.1225 33.3264 9.79042C33.3264 7.54836 35.2368 5.59374 38.6644 5.59374C40.7996 5.59374 42.5414 6.28361 43.89 7.28967L42.3729 10.1641C41.6143 9.41675 40.2096 8.75563 38.6925 8.75563C37.7654 8.75563 37.1473 9.1293 37.1473 9.61796C37.1473 10.0991 37.9932 10.2448 39.107 10.4367C41.2537 10.8065 44.3957 11.3476 44.3957 14.792C44.3957 17.2352 42.3167 18.9599 38.7487 18.9599C36.473 18.9599 34.1692 18.1838 32.8488 16.9765Z" fill="#A1A6BA"/>
<path d="M53.358 11.1989V18.6437H57.3193V9.56047C57.3193 7.20342 56.0269 5.565 53.1894 5.565C51.0823 5.565 49.6214 6.5423 48.8628 7.43339V0.994629H44.8734V18.615H48.8628V10.3653C49.3404 9.79042 50.1271 9.1293 51.2789 9.1293C52.5432 9.1293 53.358 9.6467 53.358 11.1989Z" fill="#A1A6BA"/>
<path fill-rule="evenodd" clip-rule="evenodd" d="M66.0567 17.3791C65.27 18.3277 63.781 18.96 62.1796 18.96C60.2692 18.96 57.8811 17.609 57.8811 14.7633C57.8811 11.6589 60.2692 10.6241 62.1796 10.6241C63.8372 10.6241 65.2981 11.1703 66.0567 12.1188V10.8541C66.0567 9.73305 65.1295 8.98571 63.5281 8.98571C62.292 8.98571 61.0558 9.47435 60.0444 10.3654L58.5835 7.54848C60.1849 6.14 62.3482 5.56511 64.2586 5.56511C67.2647 5.56511 70.0742 6.71489 70.0742 10.6816V18.6726H66.0567V17.3791ZM66.0567 15.367V14.2172C65.6352 13.6136 64.7081 13.3261 63.8372 13.3261C62.7977 13.3261 61.8425 13.8148 61.8425 14.8208C61.8425 15.8269 62.7977 16.2868 63.8372 16.2868C64.7362 16.2868 65.6633 15.9706 66.0567 15.367Z" fill="#A1A6BA"/>
<path fill-rule="evenodd" clip-rule="evenodd" d="M71.4228 0.994629V18.6437H75.4122V17.1778C76.4517 18.4138 77.716 18.9886 79.1207 18.9886C82.2111 18.9886 84.6273 16.6029 84.6273 12.2625C84.6273 8.06576 82.2392 5.565 79.1207 5.565C77.7441 5.565 76.3955 6.11114 75.4122 7.3759V0.994629H71.4228ZM80.5255 12.2625C80.5255 14.1883 79.3455 15.3669 77.7722 15.3669C76.9293 15.3669 75.8898 14.9069 75.3841 14.2171V10.3366C75.8898 9.6467 76.9293 9.15806 77.7722 9.15806C79.3455 9.15806 80.5255 10.3653 80.5255 12.2625Z" fill="#A1A6BA"/>
<path d="M89.1505 0.994629H85.161V18.6437H89.1505V0.994629Z" fill="#A1A6BA"/>
<path fill-rule="evenodd" clip-rule="evenodd" d="M96.3427 5.5362C92.4376 5.5362 89.7124 8.52563 89.7124 12.2336C89.7124 16.4016 92.6623 18.9598 96.5394 18.9598C98.4498 18.9598 100.529 18.4137 101.765 17.2639L100.023 14.5907C99.2927 15.2806 97.8317 15.683 96.9608 15.683C95.1628 15.683 94.1233 14.7344 93.8423 13.5846H102.72V12.6648C102.72 8.32441 100.051 5.5362 96.3427 5.5362ZM93.7861 10.7964C93.9266 9.8766 94.6009 8.81307 96.3427 8.81307C98.1689 8.81307 98.8151 9.90536 98.9274 10.7964H93.7861Z" fill="#A1A6BA"/>
</svg>
